<?xml version="1.0" standalone="no"?>
<!DOCTYPE svg PUBLIC "-//W3C//DTD SVG 20010904//EN"
 "http://www.w3.org/TR/2001/REC-SVG-20010904/DTD/svg10.dtd">
<svg version="1.0" xmlns="http://www.w3.org/2000/svg"
 width="640.000000pt" height="640.000000pt" viewBox="0 0 640.000000 640.000000"
 preserveAspectRatio="xMidYMid meet">
<metadata>
Created by potrace 1.14, written by Peter Selinger 2001-2017
</metadata>
<g transform="translate(0.000000,640.000000) scale(0.100000,-0.100000)"
fill="#000000" stroke="none">
<path d="M1147 6233 c-1 -1 -259 -4 -572 -6 l-570 -4 1 -159 c1 -87 5 -256 8
-374 7 -231 13 -470 22 -860 3 -135 7 -715 9 -1290 4 -943 8 -1232 19 -1370
10 -111 18 -181 32 -260 9 -47 18 -100 20 -119 3 -19 6 -37 9 -41 2 -4 6 -20
9 -36 8 -41 51 -182 71 -229 9 -22 28 -64 41 -93 13 -29 24 -57 24 -61 0 -5 3
-11 8 -13 4 -1 23 -34 42 -72 56 -112 181 -290 275 -395 136 -151 347 -325
475 -391 14 -7 27 -16 30 -19 11 -14 219 -110 300 -139 148 -53 312 -95 421
-108 30 -3 73 -9 96 -14 23 -4 128 -6 235 -5 174 2 240 7 304 20 12 3 39 7 60
10 96 15 268 62 385 106 42 16 81 29 87 29 7 0 12 5 12 10 0 6 7 10 15 10 30
0 368 188 395 220 3 3 32 27 65 52 301 233 535 547 680 913 13 33 25 67 27 75
2 8 5 17 8 20 3 3 21 57 39 120 18 63 44 130 58 148 25 33 61 61 85 66 7 2 30
10 50 20 21 9 40 16 44 16 3 0 20 6 37 14 18 8 82 33 142 56 61 23 124 47 140
55 17 7 80 35 140 61 61 26 112 50 115 53 3 3 30 19 60 35 132 70 274 180 398
307 85 88 92 95 151 169 28 36 56 70 61 77 6 7 10 15 10 18 0 3 5 11 11 18 22
26 97 147 91 147 -4 0 -2 4 4 8 23 16 166 330 179 393 2 9 12 46 24 82 18 60
48 188 57 247 7 43 15 103 22 160 8 69 8 365 0 445 -9 86 -17 146 -23 175 -3
14 -8 39 -10 55 -10 55 -68 260 -82 288 -7 15 -12 27 -9 27 13 0 -135 313
-154 325 -6 3 -8 10 -5 14 2 5 -4 16 -15 26 -11 10 -20 22 -20 28 0 8 -89 136
-114 164 -6 6 -22 26 -36 44 -80 105 -254 260 -405 361 -315 210 -661 308
-1255 354 -47 3 -103 9 -125 12 -35 4 -2704 10 -2708 5z m2503 -1136 c41 -4
100 -9 130 -12 30 -3 86 -7 124 -11 39 -3 72 -7 76 -9 3 -2 33 -6 65 -10 33
-3 69 -9 80 -13 11 -3 29 -7 40 -8 38 -4 160 -36 229 -60 302 -105 524 -391
562 -724 14 -116 5 -262 -22 -362 -9 -35 -17 -69 -17 -75 0 -7 -4 -13 -9 -13
-4 0 -8 -8 -8 -18 0 -10 -5 -23 -12 -30 -7 -7 -9 -12 -5 -12 4 0 -9 -30 -29
-67 -125 -231 -326 -393 -562 -454 -148 -38 -188 -41 -567 -45 -181 -2 -346
-5 -365 -8 -19 -3 -54 -7 -78 -10 -49 -6 -112 -23 -128 -33 -19 -14 -40 -67
-38 -98 24 -362 24 -699 1 -820 -5 -20 -18 -109 -19 -122 0 -5 -5 -19 -10 -33
-5 -14 -11 -32 -13 -40 -15 -70 -83 -220 -134 -294 -37 -52 -126 -145 -171
-176 -19 -13 -39 -28 -45 -32 -66 -53 -287 -163 -345 -173 -3 -1 -30 -7 -60
-15 -58 -15 -273 -20 -325 -8 -16 4 -43 10 -60 13 -16 3 -34 10 -40 15 -5 4
-12 8 -15 7 -10 -4 -120 48 -120 55 0 5 -6 8 -14 8 -32 0 -256 201 -256 230 0
4 -4 10 -8 12 -15 6 -73 98 -117 187 -58 115 -112 280 -129 391 -1 8 -5 35 -9
60 -4 25 -10 65 -12 90 -3 25 -5 620 -5 1324 0 1218 0 1280 18 1310 30 51 49
55 303 61 129 2 286 7 349 9 63 3 212 8 330 11 118 4 216 8 218 10 6 5 1144
-2 1222 -8z"/>
<path d="M5365 1554 c-136 -26 -215 -54 -288 -102 -99 -64 -214 -183 -231
-239 -4 -13 -11 -23 -16 -23 -7 0 -12 -11 -25 -55 -2 -5 -10 -26 -19 -46 -8
-20 -12 -39 -9 -43 4 -3 1 -6 -5 -6 -7 0 -11 -3 -10 -7 1 -5 -2 -35 -7 -68
-11 -76 -9 -180 5 -236 6 -24 12 -53 14 -64 8 -45 68 -168 108 -220 106 -137
260 -237 419 -271 75 -16 200 -16 280 1 139 28 296 115 376 209 15 18 38 45
51 60 13 15 39 59 58 97 117 233 98 502 -49 719 -30 44 -130 150 -142 150 -3
0 -15 9 -26 19 -20 18 -140 81 -156 82 -5 1 -17 6 -28 12 -11 6 -31 11 -45 13
-14 1 -25 3 -25 4 0 8 -198 20 -230 14z"/>
</g>
</svg>
