<svg width="20" height="19" viewBox="0 0 20 19" fill="none" xmlns="http://www.w3.org/2000/svg">
<path d="M0 0.248769C0.0161771 0.184061 0.0161771 0.119353 0 0.0546446C3.43762 0.0222905 6.87727 0.00409129 10.3189 4.70263e-05C12.794 -0.00399724 14.5695 0.252814 15.6452 0.770479C19.8856 2.81485 20.2921 8.97225 16.6219 11.9144C15.809 12.5696 14.6989 12.9215 13.6676 13.3279C13.4654 13.4088 13.338 13.5524 13.2854 13.7586C11.6414 20.1162 3.0332 20.8745 0.618772 14.8021C0.291187 13.9811 0.133461 12.7011 0.145593 10.962C0.173903 7.39094 0.125372 3.81985 0 0.248769ZM10.0278 9.67595C11.6596 9.34836 13.2975 10.046 14.6261 8.75386C15.9607 7.46171 15.7908 5.04729 14.1104 4.11913C12.339 3.14244 6.36365 3.67022 4.13122 3.65202C4.03951 3.65202 3.95156 3.68845 3.88671 3.7533C3.82186 3.81814 3.78543 3.90609 3.78543 3.9978C3.7733 6.53356 3.77128 9.0774 3.77936 11.6293C3.7915 14.4381 5.99967 16.6584 8.65068 14.6929C10.0096 13.6858 9.84576 11.6233 9.73656 10.0642C9.72039 9.84581 9.81745 9.71639 10.0278 9.67595Z" fill="url(#paint0_linear_91_1502)"/>
<path d="M17.0169 19C18.223 19 19.2008 18.0222 19.2008 16.8161C19.2008 15.61 18.223 14.6322 17.0169 14.6322C15.8108 14.6322 14.833 15.61 14.833 16.8161C14.833 18.0222 15.8108 19 17.0169 19Z" fill="url(#paint1_linear_91_1502)"/>
<defs>
<linearGradient id="paint0_linear_91_1502" x1="16.6153" y1="1.38677" x2="3.28605" y2="18.3132" gradientUnits="userSpaceOnUse">
<stop stop-color="#00FA65"/>
<stop offset="1" stop-color="#009843"/>
</linearGradient>
<linearGradient id="paint1_linear_91_1502" x1="18.6281" y1="14.9516" x2="15.5526" y2="18.8251" gradientUnits="userSpaceOnUse">
<stop stop-color="#00FA65"/>
<stop offset="1" stop-color="#009843"/>
</linearGradient>
</defs>
</svg>
