<svg width="1440" height="166" viewBox="0 0 1440 166" fill="none" xmlns="http://www.w3.org/2000/svg">
<mask id="mask0_91_1631" style="mask-type:alpha" maskUnits="userSpaceOnUse" x="0" y="0" width="1440" height="166">
<path d="M0 0H1440V166H0V0Z" fill="url(#paint0_radial_91_1631)"/>
</mask>
<g mask="url(#mask0_91_1631)">
<g filter="url(#filter0_d_91_1631)">
<mask id="path-2-inside-1_91_1631" fill="white">
<path d="M0 0H1440V166H0V0Z"/>
</mask>
<path d="M0 0H1440V166H0V0Z" fill="url(#paint1_linear_91_1631)"/>
<path d="M0 0V-4H-4V0H0ZM1440 0H1444V-4H1440V0ZM1440 166V170H1444V166H1440ZM0 166H-4V170H0V166ZM0 4H1440V-4H0V4ZM1436 0V166H1444V0H1436ZM1440 162H0V170H1440V162ZM4 166V0H-4V166H4Z" fill="url(#paint2_radial_91_1631)" mask="url(#path-2-inside-1_91_1631)"/>
</g>
<path d="M101.874 42.656C109.554 42.656 115.655 43.3387 120.178 44.704C124.786 45.984 128.114 48.288 130.162 51.616C132.21 54.944 133.234 59.6373 133.234 65.696C133.234 72.0107 131.997 76.832 129.522 80.16C127.133 83.4027 123.165 85.28 117.618 85.792V86.56C124.445 87.1573 129.223 89.4613 131.954 93.472C134.685 97.3973 136.05 102.901 136.05 109.984C136.05 116.043 134.983 120.736 132.85 124.064C130.802 127.392 127.559 129.739 123.122 131.104C118.77 132.384 113.053 133.024 105.97 133.024C100.253 133.024 95.2607 132.981 90.994 132.896C86.8127 132.896 82.93 132.811 79.346 132.64C75.762 132.469 72.0927 132.256 68.338 132L70.258 118.432C72.306 118.517 76.2313 118.603 82.034 118.688C87.922 118.773 94.7487 118.816 102.514 118.816C106.098 118.816 108.914 118.475 110.962 117.792C113.01 117.109 114.418 115.872 115.186 114.08C116.039 112.203 116.466 109.557 116.466 106.144C116.466 102.475 116.039 99.7013 115.186 97.824C114.333 95.8613 112.839 94.496 110.706 93.728C108.658 92.96 105.799 92.5333 102.13 92.448H70.13V80.032H101.874C105.031 79.9467 107.506 79.6053 109.298 79.008C111.175 78.4107 112.498 77.2587 113.266 75.552C114.034 73.8453 114.418 71.456 114.418 68.384C114.418 65.2267 113.991 62.8373 113.138 61.216C112.37 59.5093 111.005 58.3573 109.042 57.76C107.079 57.1627 104.349 56.864 100.85 56.864C96.0713 56.864 91.8473 56.864 88.178 56.864C84.5087 56.864 81.2233 56.9067 78.322 56.992C75.4207 56.992 72.7327 57.0773 70.258 57.248L68.338 43.68C71.7513 43.3387 75.0367 43.1253 78.194 43.04C81.4367 42.8693 84.9353 42.784 88.69 42.784C92.4447 42.6987 96.8393 42.656 101.874 42.656ZM87.538 43.68V132H68.338V43.68H87.538ZM185.407 41.888C192.404 41.888 198.335 42.656 203.199 44.192C208.063 45.6427 211.946 48.1173 214.847 51.616C217.834 55.0293 220.01 59.7227 221.375 65.696C222.74 71.584 223.423 78.9653 223.423 87.84C223.423 96.7147 222.74 104.139 221.375 110.112C220.01 116 217.834 120.693 214.847 124.192C211.946 127.605 208.063 130.08 203.199 131.616C198.335 133.067 192.404 133.792 185.407 133.792C178.41 133.792 172.479 133.067 167.615 131.616C162.751 130.08 158.826 127.605 155.839 124.192C152.852 120.693 150.676 116 149.311 110.112C147.946 104.139 147.263 96.7147 147.263 87.84C147.263 78.9653 147.946 71.584 149.311 65.696C150.676 59.7227 152.852 55.0293 155.839 51.616C158.826 48.1173 162.751 45.6427 167.615 44.192C172.479 42.656 178.41 41.888 185.407 41.888ZM185.407 57.376C180.884 57.376 177.343 58.272 174.783 60.064C172.308 61.856 170.516 64.9707 169.407 69.408C168.383 73.76 167.871 79.904 167.871 87.84C167.871 95.6907 168.383 101.835 169.407 106.272C170.516 110.709 172.308 113.824 174.783 115.616C177.343 117.408 180.884 118.304 185.407 118.304C189.844 118.304 193.3 117.408 195.775 115.616C198.335 113.824 200.127 110.709 201.151 106.272C202.26 101.835 202.815 95.6907 202.815 87.84C202.815 79.904 202.26 73.76 201.151 69.408C200.127 64.9707 198.335 61.856 195.775 60.064C193.3 58.272 189.844 57.376 185.407 57.376ZM262.164 42.656C269.759 42.656 275.775 43.3387 280.212 44.704C284.649 45.984 287.849 48.288 289.812 51.616C291.775 54.944 292.756 59.6373 292.756 65.696C292.756 72.0107 291.604 76.832 289.3 80.16C286.996 83.4027 283.113 85.28 277.652 85.792V86.56C284.308 87.1573 288.916 89.4613 291.476 93.472C294.121 97.3973 295.444 102.901 295.444 109.984C295.444 116.043 294.42 120.736 292.372 124.064C290.409 127.392 287.252 129.739 282.9 131.104C278.633 132.384 273.044 133.024 266.132 133.024C261.353 133.024 257.001 132.896 253.076 132.64C249.236 132.384 245.609 132 242.196 131.488C238.783 130.891 235.412 130.123 232.084 129.184L233.62 116C238.484 116.683 243.305 117.237 248.084 117.664C252.948 118.091 257.769 118.304 262.548 118.304C265.791 118.304 268.351 118.005 270.228 117.408C272.105 116.725 273.428 115.531 274.196 113.824C275.049 112.032 275.476 109.472 275.476 106.144C275.476 102.645 275.049 99.9573 274.196 98.08C273.428 96.2027 272.063 94.88 270.1 94.112C268.137 93.344 265.449 92.96 262.036 92.96L244.756 92.832V79.648L261.908 79.52C264.809 79.4347 267.071 79.0933 268.692 78.496C270.399 77.8987 271.593 76.7893 272.276 75.168C273.044 73.5467 273.428 71.2853 273.428 68.384C273.428 65.3973 273.044 63.0933 272.276 61.472C271.508 59.8507 270.185 58.7413 268.308 58.144C266.516 57.5467 264.041 57.248 260.884 57.248C256.105 57.248 251.668 57.4187 247.572 57.76C243.561 58.1013 239.465 58.4853 235.284 58.912L233.876 45.216C238.143 44.2773 242.452 43.6373 246.804 43.296C251.156 42.8693 256.276 42.656 262.164 42.656ZM400.834 43.68C405.442 43.68 407.831 46.0693 408.002 50.848L411.33 132H393.282L390.338 58.784H388.034L373.826 113.824C373.058 117.92 370.498 119.968 366.146 119.968H353.858C349.506 119.968 346.861 117.92 345.922 113.824L331.714 58.784H329.538L326.85 132H308.674L312.002 50.848C312.173 46.0693 314.605 43.68 319.298 43.68H337.602C341.783 43.68 344.343 45.7707 345.282 49.952L356.674 94.368C357.186 96.416 357.613 98.5067 357.954 100.64C358.295 102.688 358.679 104.779 359.106 106.912H360.77C361.197 104.779 361.581 102.688 361.922 100.64C362.349 98.5067 362.775 96.3733 363.202 94.24L374.466 49.952C375.319 45.7707 377.879 43.68 382.146 43.68H400.834ZM462.907 41.888C469.904 41.888 475.835 42.656 480.699 44.192C485.563 45.6427 489.446 48.1173 492.347 51.616C495.334 55.0293 497.51 59.7227 498.875 65.696C500.24 71.584 500.923 78.9653 500.923 87.84C500.923 96.7147 500.24 104.139 498.875 110.112C497.51 116 495.334 120.693 492.347 124.192C489.446 127.605 485.563 130.08 480.699 131.616C475.835 133.067 469.904 133.792 462.907 133.792C455.91 133.792 449.979 133.067 445.115 131.616C440.251 130.08 436.326 127.605 433.339 124.192C430.352 120.693 428.176 116 426.811 110.112C425.446 104.139 424.763 96.7147 424.763 87.84C424.763 78.9653 425.446 71.584 426.811 65.696C428.176 59.7227 430.352 55.0293 433.339 51.616C436.326 48.1173 440.251 45.6427 445.115 44.192C449.979 42.656 455.91 41.888 462.907 41.888ZM462.907 57.376C458.384 57.376 454.843 58.272 452.283 60.064C449.808 61.856 448.016 64.9707 446.907 69.408C445.883 73.76 445.371 79.904 445.371 87.84C445.371 95.6907 445.883 101.835 446.907 106.272C448.016 110.709 449.808 113.824 452.283 115.616C454.843 117.408 458.384 118.304 462.907 118.304C467.344 118.304 470.8 117.408 473.275 115.616C475.835 113.824 477.627 110.709 478.651 106.272C479.76 101.835 480.315 95.6907 480.315 87.84C480.315 79.904 479.76 73.76 478.651 69.408C477.627 64.9707 475.835 61.856 473.275 60.064C470.8 58.272 467.344 57.376 462.907 57.376ZM621.075 43.68C619.283 49.4827 617.704 54.56 616.339 58.912C614.974 63.264 613.608 67.0613 612.243 70.304C610.963 73.4613 609.47 76.1067 607.763 78.24C606.142 80.3733 604.179 82.0373 601.875 83.232C599.571 84.3413 596.755 85.1093 593.427 85.536V86.304C596.926 86.7307 599.87 87.5413 602.259 88.736C604.734 89.8453 606.867 91.5093 608.659 93.728C610.451 95.8613 612.072 98.6773 613.523 102.176C615.059 105.589 616.595 109.771 618.131 114.72C619.667 119.584 621.459 125.344 623.507 132H603.027C600.552 124.405 598.462 118.091 596.755 113.056C595.048 108.021 593.427 104.053 591.891 101.152C590.44 98.1653 588.776 96.032 586.899 94.752C585.107 93.472 582.846 92.832 580.115 92.832L579.987 79.264C582.632 79.264 584.851 78.5813 586.643 77.216C588.435 75.7653 590.056 73.632 591.507 70.816C592.958 67.9147 594.451 64.2453 595.987 59.808C597.523 55.2853 599.272 49.9093 601.235 43.68H621.075ZM530.579 43.68C532.542 49.9093 534.248 55.2853 535.699 59.808C537.235 64.2453 538.728 67.9147 540.179 70.816C541.63 73.632 543.251 75.7653 545.043 77.216C546.92 78.5813 549.139 79.264 551.699 79.264V92.832C548.968 92.832 546.664 93.472 544.787 94.752C542.995 96.032 541.331 98.1653 539.795 101.152C538.344 104.053 536.766 108.021 535.059 113.056C533.352 118.091 531.262 124.405 528.787 132H508.307C510.355 125.344 512.147 119.584 513.683 114.72C515.219 109.771 516.712 105.589 518.163 102.176C519.699 98.6773 521.363 95.8613 523.155 93.728C524.947 91.5093 527.038 89.8453 529.427 88.736C531.816 87.5413 534.76 86.7307 538.259 86.304V85.536C534.931 85.1093 532.115 84.3413 529.811 83.232C527.507 82.0373 525.544 80.3733 523.923 78.24C522.302 76.1067 520.808 73.4613 519.443 70.304C518.163 67.0613 516.84 63.264 515.475 58.912C514.11 54.56 512.531 49.4827 510.739 43.68H530.579ZM561.043 79.264V92.832H547.987V79.264H561.043ZM575.379 43.68V68.64C575.379 71.5413 575.166 74.4427 574.739 77.344C574.312 80.16 573.587 82.9333 572.563 85.664C573.331 88.3093 573.971 91.04 574.483 93.856C575.08 96.5867 575.379 99.1467 575.379 101.536V132H556.691V101.536C556.691 99.1467 556.99 96.5867 557.587 93.856C558.184 91.04 558.824 88.3093 559.507 85.664C558.568 82.9333 557.843 80.16 557.331 77.344C556.904 74.4427 556.691 71.5413 556.691 68.64V43.68H575.379ZM583.955 79.264V92.832H571.155V79.264H583.955ZM654.8 43.68V132H635.216V43.68H654.8ZM687.568 77.6V92.32H653.776V77.6H687.568ZM705.744 43.68V132H686.16V43.68H705.744ZM756.728 76.576C764.835 76.576 771.235 77.472 775.928 79.264C780.621 80.9707 783.949 83.872 785.912 87.968C787.875 92.064 788.856 97.696 788.856 104.864C788.856 112.203 787.875 117.92 785.912 122.016C783.949 126.112 780.835 128.971 776.568 130.592C772.387 132.213 766.883 133.024 760.056 133.024C754.68 133.024 749.987 132.981 745.976 132.896C742.051 132.896 738.424 132.811 735.096 132.64C731.768 132.469 728.312 132.256 724.728 132L726.52 118.048C728.483 118.133 732.152 118.219 737.528 118.304C742.904 118.389 749.304 118.432 756.728 118.432C760.141 118.432 762.701 118.091 764.408 117.408C766.2 116.64 767.437 115.232 768.12 113.184C768.888 111.051 769.272 108.107 769.272 104.352C769.272 100.597 768.931 97.696 768.248 95.648C767.565 93.5147 766.328 92.0213 764.536 91.168C762.829 90.2293 760.227 89.76 756.728 89.76H726.264V76.576H756.728ZM743.8 43.68V132H724.216V43.68H743.8ZM821.112 43.68V132H801.528V43.68H821.112ZM857.511 43.296C862.204 43.296 866.983 43.3387 871.847 43.424C876.711 43.424 881.49 43.5093 886.183 43.68C890.962 43.8507 895.399 44.1493 899.495 44.576L898.599 58.784H864.679C862.546 58.784 860.924 59.3387 859.815 60.448C858.791 61.5573 858.279 63.1787 858.279 65.312V110.368C858.279 112.501 858.791 114.123 859.815 115.232C860.924 116.341 862.546 116.896 864.679 116.896H898.599L899.495 131.104C895.399 131.445 890.962 131.744 886.183 132C881.49 132.171 876.711 132.256 871.847 132.256C866.983 132.341 862.204 132.384 857.511 132.384C851.879 132.384 847.314 130.763 843.815 127.52C840.402 124.192 838.695 119.883 838.695 114.592V61.088C838.695 55.712 840.402 51.4027 843.815 48.16C847.314 44.9173 851.879 43.296 857.511 43.296ZM840.871 79.136H893.735V92.96H840.871V79.136ZM960.925 43.68V132H941.341V43.68H960.925ZM993.565 43.68V57.376H959.901V43.68H993.565ZM1011.74 43.68V132H992.157V43.68H1011.74ZM1064.14 42.4C1072.33 42.4 1078.77 43.2533 1083.46 44.96C1088.16 46.6667 1091.49 49.6107 1093.45 53.792C1095.5 57.9733 1096.52 63.8187 1096.52 71.328C1096.52 78.8373 1095.54 84.6827 1093.58 88.864C1091.7 93.0453 1088.58 95.9893 1084.23 97.696C1079.88 99.3173 1073.99 100.128 1066.57 100.128C1062.64 100.128 1058.8 99.9573 1055.05 99.616C1051.29 99.2747 1047.79 98.848 1044.55 98.336C1041.31 97.824 1038.54 97.312 1036.23 96.8C1033.93 96.2027 1032.35 95.648 1031.5 95.136L1031.88 85.408C1036.91 85.408 1042.12 85.408 1047.5 85.408C1052.96 85.408 1058.33 85.408 1063.62 85.408C1067.04 85.3227 1069.68 84.896 1071.56 84.128C1073.52 83.36 1074.89 81.952 1075.66 79.904C1076.51 77.856 1076.94 74.9973 1076.94 71.328C1076.94 67.5733 1076.51 64.672 1075.66 62.624C1074.89 60.576 1073.52 59.168 1071.56 58.4C1069.68 57.5467 1067.04 57.12 1063.62 57.12C1055.77 57.12 1049.03 57.1627 1043.4 57.248C1037.77 57.3333 1033.97 57.504 1032.01 57.76L1030.09 43.68C1033.67 43.2533 1037.04 42.9547 1040.2 42.784C1043.36 42.6133 1046.77 42.528 1050.44 42.528C1054.19 42.4427 1058.76 42.4 1064.14 42.4ZM1049.67 43.68V132H1030.09V43.68H1049.67ZM1182.42 43.68V132H1163.74V79.52C1163.74 77.5573 1163.82 75.5947 1163.99 73.632C1164.16 71.584 1164.42 69.5787 1164.76 67.616H1163.99C1163.31 69.664 1162.54 71.6693 1161.69 73.632C1160.83 75.5093 1159.94 77.3867 1159 79.264L1128.66 132H1109.59V43.68H1128.28V95.136C1128.28 97.0987 1128.15 99.1467 1127.9 101.28C1127.72 103.328 1127.51 105.419 1127.26 107.552H1127.9C1128.66 105.504 1129.47 103.499 1130.33 101.536C1131.27 99.5733 1132.25 97.696 1133.27 95.904L1163.35 43.68H1182.42ZM1225.29 42.656C1232.88 42.656 1238.9 43.3387 1243.34 44.704C1247.77 45.984 1250.97 48.288 1252.94 51.616C1254.9 54.944 1255.88 59.6373 1255.88 65.696C1255.88 72.0107 1254.73 76.832 1252.43 80.16C1250.12 83.4027 1246.24 85.28 1240.78 85.792V86.56C1247.43 87.1573 1252.04 89.4613 1254.6 93.472C1257.25 97.3973 1258.57 102.901 1258.57 109.984C1258.57 116.043 1257.55 120.736 1255.5 124.064C1253.53 127.392 1250.38 129.739 1246.03 131.104C1241.76 132.384 1236.17 133.024 1229.26 133.024C1224.48 133.024 1220.13 132.896 1216.2 132.64C1212.36 132.384 1208.73 132 1205.32 131.488C1201.91 130.891 1198.54 130.123 1195.21 129.184L1196.75 116C1201.61 116.683 1206.43 117.237 1211.21 117.664C1216.07 118.091 1220.89 118.304 1225.67 118.304C1228.92 118.304 1231.48 118.005 1233.35 117.408C1235.23 116.725 1236.55 115.531 1237.32 113.824C1238.17 112.032 1238.6 109.472 1238.6 106.144C1238.6 102.645 1238.17 99.9573 1237.32 98.08C1236.55 96.2027 1235.19 94.88 1233.23 94.112C1231.26 93.344 1228.57 92.96 1225.16 92.96L1207.88 92.832V79.648L1225.03 79.52C1227.93 79.4347 1230.2 79.0933 1231.82 78.496C1233.52 77.8987 1234.72 76.7893 1235.4 75.168C1236.17 73.5467 1236.55 71.2853 1236.55 68.384C1236.55 65.3973 1236.17 63.0933 1235.4 61.472C1234.63 59.8507 1233.31 58.7413 1231.43 58.144C1229.64 57.5467 1227.17 57.248 1224.01 57.248C1219.23 57.248 1214.79 57.4187 1210.7 57.76C1206.69 58.1013 1202.59 58.4853 1198.41 58.912L1197 45.216C1201.27 44.2773 1205.58 43.6373 1209.93 43.296C1214.28 42.8693 1219.4 42.656 1225.29 42.656ZM1306.1 76.576C1314.21 76.576 1320.61 77.472 1325.3 79.264C1330 80.9707 1333.32 83.872 1335.29 87.968C1337.25 92.064 1338.23 97.696 1338.23 104.864C1338.23 112.203 1337.25 117.92 1335.29 122.016C1333.32 126.112 1330.21 128.971 1325.94 130.592C1321.76 132.213 1316.26 133.024 1309.43 133.024C1304.06 133.024 1299.36 132.981 1295.35 132.896C1291.43 132.896 1287.8 132.811 1284.47 132.64C1281.14 132.469 1277.69 132.256 1274.1 132L1275.9 118.048C1277.86 118.133 1281.53 118.219 1286.9 118.304C1292.28 118.389 1298.68 118.432 1306.1 118.432C1309.52 118.432 1312.08 118.091 1313.78 117.408C1315.58 116.64 1316.81 115.232 1317.5 113.184C1318.26 111.051 1318.65 108.107 1318.65 104.352C1318.65 100.597 1318.31 97.696 1317.62 95.648C1316.94 93.5147 1315.7 92.0213 1313.91 91.168C1312.2 90.2293 1309.6 89.76 1306.1 89.76H1275.64V76.576H1306.1ZM1293.18 43.68V132H1273.59V43.68H1293.18ZM1370.49 43.68V132H1350.9V43.68H1370.49Z" fill="white"/>
</g>
<defs>
<filter id="filter0_d_91_1631" x="-19.8" y="-36.8" width="1479.6" height="205.6" filterUnits="userSpaceOnUse" color-interpolation-filters="sRGB">
<feFlood flood-opacity="0" result="BackgroundImageFix"/>
<feColorMatrix in="SourceAlpha" type="matrix" values="0 0 0 0 0 0 0 0 0 0 0 0 0 0 0 0 0 0 127 0" result="hardAlpha"/>
<feOffset dy="-17"/>
<feGaussianBlur stdDeviation="9.9"/>
<feComposite in2="hardAlpha" operator="out"/>
<feColorMatrix type="matrix" values="0 0 0 0 0 0 0 0 0 0 0 0 0 0 0 0 0 0 0.4 0"/>
<feBlend mode="normal" in2="BackgroundImageFix" result="effect1_dropShadow_91_1631"/>
<feBlend mode="normal" in="SourceGraphic" in2="effect1_dropShadow_91_1631" result="shape"/>
</filter>
<radialGradient id="paint0_radial_91_1631" cx="0" cy="0" r="1" gradientUnits="userSpaceOnUse" gradientTransform="translate(720 82.9999) scale(720 6245.63)">
<stop stop-color="#CE586C"/>
<stop offset="0.356406" stop-color="#CE586C"/>
<stop offset="0.978886" stop-color="#CE586C" stop-opacity="0"/>
</radialGradient>
<linearGradient id="paint1_linear_91_1631" x1="721.671" y1="-34.8065" x2="720.598" y2="166.003" gradientUnits="userSpaceOnUse">
<stop stop-color="#CE586C"/>
<stop offset="0.254822" stop-color="#FF5672"/>
<stop offset="0.432209" stop-color="#BA354C"/>
<stop offset="0.598958" stop-color="#942336"/>
</linearGradient>
<radialGradient id="paint2_radial_91_1631" cx="0" cy="0" r="1" gradientUnits="userSpaceOnUse" gradientTransform="translate(447.703 -18.7419) rotate(66.8368) scale(152.889 1252.84)">
<stop stop-color="#FFF5E3"/>
<stop offset="1" stop-color="#D88C00"/>
</radialGradient>
</defs>
</svg>
